<?xml version="1.0" encoding="utf-8"?>
<!-- Generator: Adobe Illustrator 20.1.0, SVG Export Plug-In . SVG Version: 6.00 Build 0)  -->
<svg version="1.1" id="圖層_1" xmlns="http://www.w3.org/2000/svg" xmlns:xlink="http://www.w3.org/1999/xlink" x="0px" y="0px"
	 viewBox="0 0 939 228.1" style="enable-background:new 0 0 939 228.1;" xml:space="preserve">
<style type="text/css">
	.st0{fill-rule:evenodd;clip-rule:evenodd;fill:#0099D9;}
	.st1{fill-rule:evenodd;clip-rule:evenodd;fill:#00A84D;}
	.st2{fill-rule:evenodd;clip-rule:evenodd;fill:#E6002D;}
	.st3{fill-rule:evenodd;clip-rule:evenodd;fill:#FDD23E;}
	.st4{fill-rule:evenodd;clip-rule:evenodd;fill:#3E3A39;}
	.st5{fill:#3E3A39;}
</style>
<g>
	<g>
		<path class="st0" d="M370.7,1.2c9.6-0.4,16.7,10.1,15.3,19.1c-1.1,7.2-0.8,14.6-1.4,21.8c-0.5,5.9-1.2,11.7-2,17.5
			c-1.4,10.2-0.5,20.4,0,30.6c0.6,12.3,0.5,24.6,0.2,37c-0.4,15.1-1.4,30.1,0.2,45.2c0.9,8.3,0.6,16.6-1.5,24.8
			c-0.8,3.2-0.2,6.7-0.4,10c-0.3,4.2-0.2,8.3-2.3,12.4c-1.4,2.8-1.2,6.4-2.3,9.6c-1.4-6.5-1.9-12.8-2.2-19.4
			c-0.4-9.2-0.3-18.5-1.5-27.7c-0.6-4.5,0.6-9.1-1.5-13.6c-0.8-1.6,0.5-4.2,0.6-6.4c0.2-3.8,0.3-7.7,0.4-11.5
			c0.1-3.9,0.5-7.7,0.4-11.6c-0.1-3.8-0.6-7.6-0.9-11.4c-0.1-1.2-0.6-2.4-0.5-3.6c0.3-4.1,1-8.1,1-12.1c0.1-9.9-0.2-19.8-0.1-29.7
			c0.1-6.2,0.7-12.4,0.9-18.6c0.1-2.2-0.9-4.4-0.7-6.5c0.2-3.2,1.1-6.4,1.5-9.6c0.9-8.9,1.9-17.7,2.5-26.6c0.3-3.8,0.2-7.8-0.8-11.4
			C374.8,6.7,372.4,4.1,370.7,1.2z"/>
		<path class="st1" d="M357.9,7.4c-6.9,9.6-15.2,17.6-19.8,28.4c4,0.6,7.6,1,11.2,1.6c2.2,0.3,3.5,1.6,4.5,3.6
			c2.3,4.5,2.9,9.1,1.8,14.1c-2,9.3-2.5,18.8-1.8,28.3c0.2,3-0.5,6.1-0.4,9.1c0.3,5.8,0.2,11.6,1.4,17.4c0.9,4.6,0.4,9.6,0.4,14.4
			c0.1,13.2,0.3,26.5,0,39.7c-0.1,5.9-1,11.9-2.2,17.7c-0.4,2.1-2.3,4.5-4.2,5.7c-3.6,2.3-7.6-0.5-6.8-4.8c0.6-3.2,0.1-6.1-0.9-8.9
			c-1.8-5.1-1.3-10.2-1.2-15.4c0-14,2.6-27.6,4-41.4c0.1-1.4-0.1-2.8-0.2-4.2c-0.1-1.2-0.7-2.5-0.4-3.6c2.5-11.4,2.1-22.9,1.6-34.5
			c-0.2-5,1.1-10,1.3-15c0.3-4.8,0.2-9.6,0.1-14.4c0-0.9-0.9-1.7-1.2-2.5c-2.4,0.6-4.5,1.4-6.7,1.6c-4.2,0.3-6.2-2-6.5-6.1
			c-0.4-7.1,4-11.7,8.3-16.3c4.6-4.9,9.5-9.3,14.2-14.1C355.5,6.6,356.3,5.5,357.9,7.4z"/>
		<path class="st2" d="M321.8,32.1c0.3,1.7,0.6,2.4,0.4,2.8c-5.2,8.2-5.9,17.9-8.5,26.9c-1.4,4.7-1.2,10-1.5,15
			c-0.8,13.6-1.5,27.1-2.1,40.7c-0.1,3.2,0.7,6.4,0.5,9.6c-0.4,9.1-1.3,18.2-1.6,27.2c-0.4,10-0.3,19.9-0.5,29.9c0,2-0.6,4-0.8,6
			c-0.3,3.8-2.3,5.8-6.8,6.6c-0.7-2.1-1.4-4.3-2.2-6.5c-2.2-6.4-1.5-13.2-1.9-19.8c-0.5-8.5-0.9-17-0.9-25.5c0-3.5,1.4-7.1,1.5-10.6
			c0.1-4.6-0.9-9.3-0.5-13.8c0.3-3.4-1.4-7,1.3-10.5c1.2-1.5-0.2-5-0.1-7.5c0.1-2-0.1-4.5,1-5.7c2.5-2.8,2.5-5.8,2.1-9
			c-0.9-7.9,1.4-15.2,3.5-22.7c0.8-2.9,1.7-5.8,2.7-8.7c1.6-4.8,2.8-9.7,7.1-13.2c1.5-1.2,2-3.5,3.1-5.2
			C318.7,36.3,320,34.6,321.8,32.1z"/>
		<path class="st3" d="M325.6,67.6c6.4,1.7,7.2,6.2,7.4,10.6c0.2,6.5,0.2,13,0,19.5c-0.3,10.1-0.8,20.1-1.2,30.2
			c-0.4,13.4-0.7,26.7-1.3,40.1c-0.1,3-0.6,6-1.3,9c-0.6,2.9-2.6,4.9-5.7,6.4c-0.4-1.5-0.9-2.6-0.9-3.7c-0.5-10.3-0.8-20.6-1.5-30.9
			c-0.6-9.8,1.1-19.4,2.6-29c0.3-2,0.6-4,0.8-6c0.5-6.7,0.8-13.5,1.2-20.2c0.4-6.2,0.9-12.4,1.1-18.6
			C326.8,72.9,326.1,70.7,325.6,67.6z"/>
	</g>
	<g>
		<g>
			<path class="st4" d="M169.8,203.2c0,0.9-0.1,1.7-0.6,2.4c-0.2,0.2-0.2,0.5-0.3,0.8c-0.1,0.5-0.3,0.9-0.6,1.2
				c-0.4,0.5-0.7,1.1-1.1,1.6c-0.7,0.9-1.3,1.8-1.9,2.6c-0.2,0.3-0.5,0.6-0.8,0.9c-0.4,0.4-0.7,0.9-0.9,1.5
				c-0.1,0.4-0.3,0.8-0.6,1.1c-0.3,0.3-0.4,0.6-0.5,1c-0.1,0.3-0.3,0.6-0.4,1c-0.2,0.4-0.4,0.7-0.7,1c-0.3,0.3-0.5,0.6-0.5,1
				c-0.1,0.6-0.4,1.1-0.8,1.5c-0.2,0.2-0.3,0.4-0.5,0.6c-0.5,0.7-1.2,1.3-2,1.6c-0.7,0.3-1.5,0.6-2.1,1.2c-0.3,0.2-0.6,0.4-1,0.5
				c-0.6,0.2-0.8,0-0.8-0.6c0-0.8,0.3-1.5,0.7-2.2c0.4-0.7,0.8-1.4,1.4-2c0.4-0.4,0.6-1,0.9-1.5c0.4-0.7,0.8-1.5,1.1-2.2
				c0.1-0.2,0.3-0.5,0.5-0.6c0.8-0.7,1.3-1.6,1.8-2.5c0.2-0.4,0.4-0.7,0.7-1c0.2-0.2,0.4-0.4,0.5-0.7c0.4-0.6,0.4-1.2-0.1-1.7
				c-0.3-0.4-0.7-0.7-1-1c-0.4-0.3-0.7-0.7-0.9-1.2c-0.1-0.2-0.3-0.4-0.5-0.6c-0.3-0.3-0.5-0.6-0.7-1c-0.1-0.1-0.1-0.3-0.2-0.4
				c-0.8-0.9-1.2-2.1-1.9-3c-0.2-0.2-0.2-0.5-0.2-0.7c0-0.4,0.2-0.5,0.6-0.3c0.1,0.1,0.2,0.1,0.3,0.2c0.4,0.3,0.8,0.6,1.3,0.7
				c0.3,0.1,0.6,0.3,0.9,0.6c0.5,0.5,1,1,1.5,1.4c0.4,0.4,0.8,0.8,1.2,1.2c0.4,0.5,0.9,0.8,1.4,1.2c0.6,0.4,1.1,0.3,1.6-0.1
				c0.5-0.4,0.9-0.9,1.2-1.5c0.1-0.3,0.3-0.6,0.5-0.8c0.5-0.7,1-1.5,1.4-2.3c0.3-0.5,0.3-1,0.1-1.5c-0.1-0.2-0.2-0.5,0-0.7
				c0.2-0.2,0.5,0,0.7,0.1c0.3,0.1,0.6,0.3,0.9,0.5c0.2,0.1,0.4,0.3,0.5,0.5C169.5,201.8,169.9,202.5,169.8,203.2z"/>
			<path class="st4" d="M117.1,219.8c-0.7,0-1.4-0.1-2.1-0.1c-0.5,0-0.9-0.2-1.3-0.5c-0.5-0.5-1.1-0.8-1.6-1.1
				c-0.3-0.2-0.5-0.3-0.7-0.6c-0.5-0.6-1-1.2-1.4-1.9c-0.1-0.2-0.2-0.4-0.2-0.6c-0.1-1-0.2-2-0.2-3c0-1.5,0.4-2.9,1.2-4.2
				c0.3-0.5,0.6-0.9,0.8-1.5c0.1-0.2,0.2-0.3,0.3-0.5c0.7-0.7,1.2-1.6,1.8-2.4c0.3-0.4,0.5-0.7,1-0.9c0.6-0.3,1.2-0.5,1.6-1.1
				c0.2-0.3,0.5-0.6,0.8-0.9c0.4-0.5,0.9-0.4,1.2,0.1c0.3,0.5,0.6,1,0.9,1.4c0.6,0.8,0.3,2.1-0.5,2.6c-0.7,0.4-1.3,0.9-1.9,1.4
				c-0.1,0.1-0.2,0.2-0.2,0.2c-1.2,0.8-2,2-2.9,3.1c-0.8,0.9-1,2-1.2,3.2c0,0.1,0,0.1,0,0.2c0.1,0.7,0.1,1.4,0.2,2.2
				c0,0.3,0.2,0.6,0.3,0.9c0.3,0.6,0.8,1.1,1.5,1.1c0.4,0,0.7,0.1,1.1,0.1c0.8,0.1,1.6-0.1,2.3-0.6c0.5-0.3,1-0.5,1.5-0.6
				c1.1-0.2,1.8-0.8,2.6-1.4c0.4-0.3,0.7-0.7,1.1-1c0.3-0.2,0.5-0.4,0.6-0.7c0.1-0.3,0.3-0.5,0.5-0.7c0.7-0.8,1.6-1.4,2.3-2.3
				c0.2-0.2,0.3-0.4,0.5-0.6c0.4-0.4,0.7-0.8,0.7-1.4c0-0.4,0.2-0.7,0.4-1c0.1-0.1,0.2-0.2,0.4-0.1c0.2,0.1,0.1,0.3,0.1,0.4
				c-0.1,0.4-0.1,0.7-0.2,1.1c-0.1,0.4,0,0.7,0.2,1.1c0.3,0.4,0.3,0.9,0.1,1.3c-0.3,0.8-0.7,1.7-1.2,2.4c-0.5,0.7-0.7,1.5-1.1,2.3
				c-0.2,0.5-0.5,1-1,1.3c-0.2,0.1-0.4,0.3-0.5,0.5c-0.3,0.4-0.7,0.6-1.1,0.8c-1.5,0.6-3,1.1-4.5,1.7
				C118.4,219.7,117.7,219.8,117.1,219.8z"/>
			<path class="st4" d="M133.1,203.8c-0.1,0.6,0,1.3-0.3,1.9c-0.2,0.4-0.1,0.9-0.1,1.4c0,0.6,0,1.2-0.2,1.8c0,0.1-0.1,0.3,0,0.4
				c0.2,1.1-0.2,2.1-0.2,3.1c0,0.3-0.2,0.6-0.3,1c-0.2,0.6-0.4,1.2-0.4,1.9c0,0.3-0.2,0.5-0.3,0.8c-0.3,0.3-0.5,0.7-0.6,1.1
				c-0.1,0.2-0.2,0.5-0.3,0.7c-0.3,0.5-0.5,0.5-1,0.3c-0.4-0.2-0.9-0.3-1.3-0.1c-0.1,0-0.2,0-0.3,0c-0.5,0-0.8-0.3-0.6-0.8
				c0.2-0.5,0.4-1,0.9-1.3c0.5-0.3,0.7-0.7,0.7-1.3c0-0.6,0-1.2,0.2-1.8c0.1-0.2,0.1-0.4,0.1-0.6c0-0.3,0.1-0.6,0.3-0.9
				c0.3-0.5,0.4-1.1,0.5-1.6c0.1-0.2,0.1-0.4,0-0.7c-0.1-0.5,0-1,0.2-1.4c0.2-0.4,0.2-0.9,0.1-1.3c-0.1-0.7,0-1.4,0.1-2.1
				c0.1-0.7,0.3-1.4,0.2-2c0-0.1,0-0.3,0-0.4c0.2-0.5,0.3-1,0-1.5c-0.1-0.2,0-0.3,0.2-0.4c0.1,0,0.2,0,0.3,0
				c0.6,0.2,1.2,0.5,1.4,1.1C132.8,202,133.1,202.8,133.1,203.8z"/>
			<path class="st4" d="M148.4,203.4c0,0.1,0,0.2-0.1,0.3c-0.3,0.4-0.5,0.8-1,1.1c-0.3,0.2-0.6,0.3-0.9,0.5
				c-0.3,0.1-0.5,0.4-0.6,0.7c-0.3,1-0.6,2-0.6,3.1c0,0.2-0.1,0.4-0.2,0.6c-0.2,0.4-0.3,0.9-0.3,1.4c0,0.5-0.1,0.9-0.3,1.3
				c-0.2,0.2-0.2,0.5-0.1,0.8c0.2,0.7,0.1,1.3-0.1,1.9c-0.1,0.3-0.2,0.6-0.2,1c0,0.5-0.1,1-0.2,1.5c-0.1,0.5-0.3,0.7-0.8,0.6
				c-0.5-0.1-1.1-0.3-1.6-0.6c-0.5-0.3-0.6-0.8-0.4-1.3c0.1-0.1,0.1-0.3,0.2-0.4c0.2-0.3,0.2-0.6,0.1-0.9c-0.1-0.4-0.1-0.9,0-1.3
				c0.1-0.3,0.1-0.5,0.1-0.8c-0.2-1.4-0.2-2.9,0.1-4.3c0.1-0.4,0.1-0.8,0-1.2c0-0.5-0.3-0.9-0.9-1.1c-0.7-0.2-1.3-0.5-1.8-1
				c-0.7-0.6-1.3-1.1-2-1.7c0,0,0,0,0,0c-0.3-0.3-0.4-0.7-0.3-0.9c0.2-0.2,0.5-0.2,0.9,0c1,0.6,2.1,0.6,3.2,0.6
				c0.6,0,1.2-0.3,1.8-0.5c0.3-0.1,0.4-0.4,0.5-0.7c0.2-0.5,0.2-0.6,0.8-0.6c0.5,0,1.1,0,1.6,0.2c0.4,0.1,0.9,0.2,1.4,0.2
				c0.4,0,0.8,0.2,1.1,0.5c0.1,0.2,0.3,0.3,0.4,0.5C148.3,203,148.4,203.1,148.4,203.4z"/>
		</g>
		<g>
			<path class="st4" d="M31.5,199.9c0.6,0,1.2,0.1,1.6,0.6c0.1,0.1,0.2,0.1,0.3,0.2c0.6,0.3,1,0.8,1.2,1.5c0.1,0.4,0.1,0.7-0.1,1.1
				c-0.3,0.5-0.4,1-0.3,1.6c0,0.2,0,0.4-0.1,0.7c-0.1,0.3-0.1,0.6-0.1,0.9c0,0.5-0.1,1.1-0.3,1.6c-0.2,0.4-0.2,0.9-0.1,1.4
				c0.1,0.4,0,0.7-0.1,1c-0.1,0.3-0.2,0.5-0.2,0.8c0,0.4-0.1,0.8-0.2,1.3c-0.3,1.1-0.3,2.2-0.4,3.4c-0.1,0.5-0.2,0.9-0.4,1.4
				c-0.1,0.2-0.1,0.4-0.2,0.6c-0.1,0.4-0.2,0.8-0.5,1.2c-0.2,0.3-0.3,0.5-0.2,0.9c0.1,0.2,0.1,0.4-0.1,0.6c-0.2,0.2-0.4,0-0.6-0.1
				c-0.3-0.2-0.6-0.3-0.9-0.4c-0.7-0.1-1-0.6-0.6-1.3c0.1-0.1,0.1-0.2,0.2-0.3c0.2-0.3,0.3-0.5,0.2-0.9c-0.1-0.6-0.5-1.2-0.4-1.9
				c0-0.2-0.1-0.3,0-0.5c0.2-0.8,0.1-1.7,0.3-2.5c0.1-0.4,0.1-0.9,0-1.3c-0.1-0.5-0.4-0.7-0.9-0.6c-0.7,0.2-1.4,0.4-2,0.8
				c-0.3,0.2-0.6,0.3-0.9,0.4c-1.1,0.4-2.1,0.9-2.4,2.2c-0.1,0.3-0.2,0.6-0.3,1c0,0.1-0.1,0.3-0.1,0.4c-0.5,0.5-0.6,1.1-0.9,1.7
				c-0.2,0.4-0.3,0.4-0.7,0.2c-0.4-0.2-0.8-0.3-0.7-0.9c0-0.3-0.2-0.4-0.4-0.4c-0.2,0-0.4,0-0.6-0.1c-0.4-0.1-0.6-0.5-0.3-0.8
				c0.3-0.4,0.5-0.8,0.5-1.3c0-0.3,0.1-0.5,0.4-0.7c0.7-0.5,0.9-1.2,1.4-1.9c0.1-0.2,0.1-0.4,0.1-0.6c-0.1-0.5,0-0.9,0.2-1.3
				c0.2-0.4,0.4-0.8,0.4-1.3c0-0.3,0.1-0.6,0.3-0.9c0.3-0.4,0.4-0.8,0.5-1.3c0-0.4,0.2-0.8,0.4-1.2c0.3-0.7,0.5-1.4,0.7-2.1
				c0.2-0.8,0.4-1.6-0.1-2.4c-0.2-0.3,0-0.5,0.3-0.5c0.5,0,0.9,0.3,1.2,0.7c0.4,0.5,0.6,1,1,1.4c0.3,0.4,0.4,0.8,0.1,1.3
				c-0.2,0.4-0.3,1-0.7,1.3c-0.1,0.1-0.1,0.3-0.1,0.5c0.1,0.6-0.1,1-0.5,1.4c-0.2,0.3-0.3,0.5-0.2,0.9c0.1,0.5,0,0.8-0.3,1.2
				c-0.2,0.2-0.3,0.4-0.5,0.7c-0.3,0.5-0.1,0.9,0.5,1c0.3,0,0.6,0,0.9-0.2c0.6-0.4,1.2-0.7,1.9-1c0.4-0.2,0.8-0.4,1.1-0.7
				c0.4-0.4,0.6-0.8,0.7-1.4c0.1-0.6,0.2-1.2,0.5-1.7c0.1-0.2,0.2-0.5,0.2-0.7c0.1-0.4,0.3-0.7,0.8-0.9c0.5-0.1,0.7-0.4,0.7-0.9
				c0-0.1,0.1-0.3,0.1-0.4c0.1-0.5,0.1-0.6-0.4-0.7c-0.3-0.1-0.5-0.2-0.6-0.5c-0.1-0.6,0.1-0.9,0.7-1
				C31.3,199.9,31.4,199.9,31.5,199.9z"/>
			<path class="st4" d="M16,204.1c-1.2-0.2-2.6,0-3.9,0c-0.6,0-1.2,0.1-1.7,0.5c-0.3,0.2-0.7,0.3-1.1,0.3c-0.4,0-0.8,0.2-1.1,0.5
				c-0.6,0.6-1.2,1.2-1.9,1.6c-0.6,0.4-1.1,0.9-1.3,1.7c-0.1,0.5-0.5,0.9-0.7,1.4c-0.2,0.4-0.3,0.8-0.4,1.2
				c-0.1,0.3-0.1,0.6-0.2,0.9c-0.2,0.4-0.1,0.7,0.1,1.1c0.3,0.4,0.4,0.8,0.6,1.2c0,0,0,0.1,0,0.1c0.2,0.4,1.7,2.2,2.1,2.4
				c1,0.6,1.9,0.5,2.9-0.1c0.9-0.7,1.9-1.3,2.9-1.9c0.8-0.5,1.6-1,2.3-1.8c0.1-0.1,0.3-0.3,0.4-0.4c0.6-0.3,0.9-0.8,1.1-1.4
				c0.1-0.2,0.2-0.4,0.3-0.6c0.2-0.2,0.5-0.2,0.6,0.2c0.1,0.5,0.2,0.9,0.3,1.4c0,0.3-0.1,0.5-0.3,0.7c-0.3,0.4-0.5,0.7-0.7,1.1
				c-0.1,0.3-0.3,0.5-0.5,0.8c-0.3,0.4-0.6,0.7-0.9,1.1c-0.2,0.3-0.5,0.6-0.8,0.8c-0.2,0.1-0.4,0.3-0.5,0.5
				c-0.2,0.7-0.7,1.1-1.2,1.5c-0.1,0.1-0.3,0.2-0.4,0.3c-1.4,1.2-2.9,1.1-4.5,0.3c-0.7-0.6-1.6-1-2.2-1.7c-0.2-0.3-0.5-0.5-0.8-0.7
				c-0.5-0.3-0.8-0.7-1-1.2c-0.2-0.6-0.5-1-1-1.4c-0.5-0.3-0.6-0.9-0.9-1.3c-0.2-0.4-0.4-0.7-0.6-1c-0.3-0.3-0.4-0.7-0.4-1.2
				c0-0.6,0.1-1.1,0.3-1.6c0.2-0.5,0.2-1,0.2-1.6c0-0.6,0.3-1,0.6-1.5c0.5-0.7,1-1.3,1.8-1.5c0.3-0.1,0.4-0.4,0.5-0.7
				c0-0.2,0.1-0.4,0.1-0.7c0.1-0.6,0.5-0.9,1-0.9c0.3,0,0.6-0.1,0.9-0.2c0.4-0.2,0.8-0.4,1.2-0.5c0.3-0.1,0.5-0.3,0.6-0.5
				c0.5-0.8,1.3-1.1,2.1-1.3c0.3-0.1,0.7-0.2,0.9-0.5c0.1-0.2,0.3-0.2,0.5-0.3c0.7-0.1,1.5-0.3,2.2-0.4c0.4-0.1,0.7,0,1.1,0.2
				c0.5,0.3,1.1,0.5,1.6,0.7c0.5,0.2,0.8,0.5,0.9,1c0.2,0.5,0.4,1,0.9,1.4c0.4,0.3,0.4,0.8,0,1.2c-0.3,0.2-0.5,0.4-0.9,0.4
				C16.8,204.1,16.4,204.1,16,204.1z"/>
			<path class="st4" d="M48.9,216.6c0.3,0.1,0.5-0.1,0.8-0.3c0.6-0.6,1-1.3,1.2-2.2c0-0.2,0.1-0.3,0.2-0.4c0.6-0.7,1-1.6,1.5-2.4
				c0.3-0.5,0.6-0.9,1-1.2c0.2-0.2,0.4-0.4,0.4-0.7c0-0.5,0.2-0.9,0.5-1.3c0.4-0.5,0.7-0.9,1-1.4c0.4-0.7,1-1.2,1.6-1.7
				c0.2-0.2,0.4-0.4,0.4-0.7c0-0.4,0.2-0.7,0.5-0.9c0.1-0.1,0.3-0.3,0.4-0.4c0.3-0.3,0.7-0.5,1.2-0.4c0.1,0,0.3,0.1,0.4,0
				c0.8-0.2,1.5,0.1,2.3,0.2c0.6,0.1,1.1,0.6,1.1,1.2c0,0.5,0.2,1,0.3,1.5c0.2,0.7,0.3,1.4,0.4,2.1c0.1,0.5,0.3,1.1,0.1,1.7
				c-0.1,0.2-0.1,0.4,0,0.6c0.2,0.4,0.2,0.7,0.2,1.1c0,0.4,0.1,0.8,0.4,1c0.3,0.2,0.4,0.5,0.2,0.9c-0.1,0.3,0,0.5,0.1,0.8
				c0.2,0.3,0.3,0.7,0.3,1.1c-0.1,0.3,0.1,0.5,0.3,0.8c0.3,0.4,0.3,0.8,0.1,1.2c-0.2,0.4-0.2,0.9-0.1,1.3c0,0.1,0.1,0.2,0,0.3
				c-0.1,0.4-0.2,0.9-0.2,1.4c0,0.2-0.2,0.4-0.4,0.4c-0.4,0.1-0.8,0.3-1.3,0.4c-0.4,0.2-0.9,0-1.4-0.1c-0.5-0.2-1-0.4-1.5-0.7
				c-0.4-0.2-0.9-0.4-1.4-0.4c-0.3,0-0.6-0.1-0.8-0.3c-0.3-0.2-0.7-0.4-1.1-0.5c-0.1,0-0.3-0.1-0.4-0.1c-0.4-0.2-0.5-0.7-0.1-1
				c0.1-0.1,0.3-0.2,0.5-0.2c0.8-0.2,1.5-0.5,2.1-1c0.1-0.1,0.3-0.2,0.4-0.2c1.1-0.5,1.6-1.7,1.2-2.9c-0.1-0.3-0.2-0.5,0-0.8
				c0.3-0.4,0.3-0.9,0.1-1.3c-0.2-0.7-0.4-1.5-0.8-2.1c-0.3-0.3-0.3-0.8-0.4-1.2c-0.1-0.3-0.1-0.6-0.4-0.6c-0.4,0-0.5,0.3-0.7,0.5
				c-0.1,0.2-0.2,0.4-0.2,0.6c-0.1,0.3-0.2,0.5-0.4,0.7c-0.4,0.4-0.8,0.9-1.1,1.4c-0.1,0.2-0.2,0.4-0.3,0.6
				c-0.1,0.2-0.1,0.4-0.2,0.4c-0.5,0.4-0.6,0.9-0.7,1.4c-0.1,0.5-0.3,0.8-0.8,1c-0.1,0.1-0.3,0.1-0.4,0.2c-0.1,0.1-0.2,0.2-0.2,0.4
				c0.1,0.5-0.1,0.9-0.3,1.3c-0.1,0.2-0.2,0.4-0.2,0.6c-0.1,0.8-0.5,1.4-0.9,2c-0.2,0.3-0.4,0.5-0.6,0.8c-0.2,0.3-0.4,0.4-0.8,0.3
				c-0.3-0.1-0.5-0.2-0.7-0.4c-0.4-0.3-0.7-0.5-1.1-0.8c-0.3-0.3-0.7-0.3-1.1-0.4c-0.3,0-0.6-0.1-0.8-0.3c-0.2-0.2-0.3-0.4-0.2-0.6
				c0.1-0.3,0.3-0.2,0.6-0.2C48.8,216.6,48.9,216.6,48.9,216.6z"/>
			<path class="st4" d="M68.4,203.2c0.4,0,0.7,0,1.1,0.1c0.6,0.1,1.2,0.2,1.9,0.4c1,0.2,1.8,0.8,2.3,1.6c0.2,0.4,0.5,0.7,0.8,0.9
				c0.2,0.2,0.4,0.4,0.6,0.6c0.4,0.6,1,0.9,1.4,1.5c0.2,0.3,0.6,0.3,0.9-0.1c0.3-0.3,0.6-0.7,0.8-1.2c0.2-0.6,0.5-1.2,0.8-1.8
				c0.1-0.1,0.1-0.3,0.2-0.4c0.1-0.5,0.3-0.9,0.6-1.3c0.3-0.6,0.4-1.2-0.2-1.7c-0.1-0.1-0.3-0.3-0.2-0.5c0.1-0.2,0.4-0.3,0.6-0.3
				c0.4,0,0.7,0.2,0.9,0.4c0.3,0.4,0.7,0.7,1,1c0.4,0.3,0.7,0.7,1,1c0.1,0.1,0.1,0.1,0.2,0.2c0.3,0.5,0.4,1.1,0.7,1.6
				c0.1,0.3,0,0.6-0.3,0.8c-0.7,0.6-0.9,1.5-1.4,2.2c-0.1,0.1-0.1,0.3-0.1,0.4c0,0.5-0.2,0.9-0.6,1.2c-0.1,0.1-0.3,0.2-0.3,0.3
				c-0.1,0.7-0.6,1.3-0.6,2.1c-0.1,0.6-0.4,1.1-0.8,1.6c-0.3,0.3-0.5,0.6-0.6,1c0,0.2-0.1,0.3-0.2,0.4c-0.2,0.3-0.4,0.6-0.4,1
				c0,0.1,0,0.3-0.1,0.4c-0.3,0.3-0.4,0.7-0.5,1.1c-0.1,0.3-0.3,0.4-0.6,0.6c-0.2,0.1-0.5,0.1-0.7,0.2c-0.4,0.1-0.7,0.3-0.7,0.7
				c0,0.4-0.2,0.6-0.5,0.7c-0.3,0.2-0.5,0.3-0.7,0.6c-0.1,0.2-0.3,0.2-0.5,0.2c-0.4,0-0.8-0.1-1.3-0.2c-0.2,0-0.3-0.2-0.3-0.4
				c0-0.3,0.1-0.5,0.3-0.7c0.5-0.7,0.8-1.5,0.9-2.4c0.1-0.4,0.3-0.8,0.4-1.2c0-0.1,0.1-0.2,0.2-0.4c0.1-1,0.5-1.9,0.6-2.8
				c0.1-0.4-0.2-0.8-0.4-1.1c-0.5-0.6-1-1.2-1.6-1.7c-0.2-0.2-0.4-0.5-0.6-0.7c-0.6-0.8-1-1.7-1.8-2.2c-0.2-0.1-0.3-0.2-0.4-0.4
				c-0.5-0.7-1.2-1-2-1.3c-0.8-0.3-1-1-0.8-1.7c0-0.2,0.2-0.2,0.3-0.2C68,203.2,68.2,203.2,68.4,203.2z"/>
			<path class="st4" d="M45.8,205.6c0,0.3-0.1,0.6-0.3,0.9c-0.3,0.3-0.3,0.6-0.2,1c0.2,0.7,0.3,1.5,0.2,2.2c0,0.2-0.1,0.4-0.2,0.6
				c-0.2,0.2-0.2,0.5-0.1,0.7c0.1,0.2,0.1,0.4,0.1,0.5c-0.1,0.5-0.1,0.9-0.1,1.4c0,0.6-0.2,1.2-0.5,1.8c-0.1,0.2-0.2,0.3-0.1,0.5
				c0.4,0.5,0.2,1,0,1.4c-0.2,0.4-0.3,0.8-0.4,1.3c-0.1,0.5-0.4,0.9-0.8,1.3c-0.2,0.2-0.5,0.4-0.6,0.7c-0.1,0.3-0.4,0.4-0.6,0.3
				c-0.4-0.1-0.9-0.2-1-0.7c-0.1-0.2-0.3-0.3-0.5-0.3c-0.2,0-0.3-0.2-0.3-0.4c0-0.3,0-0.7,0.2-1c0.2-0.4,0.2-0.8,0.2-1.2
				c0-0.6,0.1-1.1,0.2-1.7c0.1-0.5,0.1-0.9,0.3-1.4c0.1-0.3,0.1-0.6,0.1-0.9c0-0.5,0.1-1,0.3-1.5c0.2-0.6,0.3-1.2,0.5-1.8
				c0.1-0.3,0.3-0.7,0.6-0.9c0.3-0.2,0.2-0.4-0.1-0.5c-0.8-0.3-0.9-0.5-0.8-1.3c0.1-0.5,0.2-1,0.1-1.5c0-0.1,0-0.3,0.1-0.4
				c0.4-0.5,0.3-1.2,0.5-1.7c0.1-0.3,0-0.6-0.2-0.8c-0.1-0.2-0.3-0.4-0.2-0.6c0.1-0.2,0.5-0.1,0.7,0.2c0.2,0.1,0.2,0.3,0.3,0.5
				c0.1,0.3,0.3,0.5,0.6,0.6c0,0,0,0,0,0c0.6,0.6,1.5,1,1.7,2C45.7,205.1,45.7,205.4,45.8,205.6z"/>
			<path class="st4" d="M89.3,218.5c0.1-1,0-1.9,0.1-2.9c0-0.4,0-0.7,0-1.1c0-0.5,0-1,0.1-1.5c0.1-0.3,0.1-0.6,0.1-0.9
				c-0.1-0.4,0-0.7,0.1-1c0.1-0.5,0.1-1,0-1.4c-0.1-0.5-0.1-0.9,0.2-1.3c0.2-0.2,0.2-0.4,0.2-0.7c0-0.7,0.1-1.3,0.3-1.9
				c0.1-0.8,0.3-1.5,0.4-2.3c0.1-0.5,0-1-0.5-1.4c-0.3-0.2-0.4-0.5-0.4-0.8c0-0.3,0.1-0.4,0.4-0.4c0.3,0,0.6,0.1,0.9,0.3
				c0.4,0.3,0.8,0.5,1.1,0.8c0.1,0.1,0.2,0.2,0.3,0.3c0.4,0.7,0.8,1.5,0.9,2.4c0,0.1,0,0.1,0,0.2c0.2,0.7,0.2,1.5-0.1,2.2
				c0,0,0,0.1,0,0.2c0,1.2-0.3,2.5-0.4,3.7c0,0.3-0.1,0.5-0.2,0.8c-0.2,0.4-0.2,0.8-0.1,1.2c0.1,0.5,0.1,1.1,0,1.6
				c-0.1,0.3-0.1,0.5-0.2,0.8c0,0.5-0.1,1-0.4,1.5c-0.1,0.2-0.1,0.4-0.2,0.6c0,0.5-0.2,0.9-0.4,1.3c-0.1,0.3-0.3,0.5-0.7,0.5
				c-0.4,0-0.8,0.1-1.1,0.4c-0.2,0.1-0.3,0.1-0.4-0.2C89.3,219.1,89.3,218.8,89.3,218.5z"/>
		</g>
		<g>
			<path class="st4" d="M219.3,207.3c-0.9-0.4-1.9-0.8-2.8-1.2c-0.1,0-0.2,0-0.3,0c-0.5,0-0.9,0-1.4-0.1c-1.2-0.1-2.2,0.3-3.1,0.9
				c-0.4,0.3-0.8,0.6-1.1,0.9c-0.4,0.4-0.4,0.6-0.1,1.1c0.2,0.3,0.5,0.5,0.9,0.6c0.3,0.1,0.7,0.2,1,0.4c0.4,0.3,0.7,0.7,0.6,1.3
				c0,0.2,0,0.4,0,0.6c0.1,0.6,0.3,1.2,0.4,1.8c0.1,0.6,0.2,1.3,0,1.9c-0.4,1-1,1.8-1.6,2.6c-0.8,1-2.2,1.1-3.2,0.3
				c-0.3-0.2-0.5-0.5-0.7-0.7c-0.6-0.5-1-1.2-1-2.1c-0.1-1-0.3-2,0.1-3c0-0.1,0-0.2,0-0.4c0-0.9,0.1-1.8,0.4-2.7
				c0.3-0.7,0.5-1.5,1.1-2.1c0.1-0.1,0.2-0.4,0.3-0.6c0.2-0.4,0.4-0.8,0.6-1.3c0.2-0.3,0.4-0.6,0.5-1c0.2-0.6-0.1-1.1-0.7-1.2
				c-1-0.3-2-0.2-3-0.1c-0.3,0-0.5,0.2-0.7,0.5c-0.2,0.4-0.4,0.7-0.6,1.1c-0.3,0.5-0.7,1-0.8,1.5c-0.3,1.1-0.8,2.1-0.9,3.2
				c0,0.3-0.1,0.7-0.2,1c0,0.6-0.1,1.2,0,1.8c0.1,1,0.3,1.9,0.6,2.8c0.1,0.5,0.3,1.1,0.6,1.6c0.4,0.7,1,1.2,1.6,1.7
				c0.4,0.3,0.8,0.5,1.1,0.8c0.6,0.6,1.4,0.8,2.2,1c1.1,0.2,2.2,0.3,3.3,0.5c1.3,0.1,2.5-0.2,3.7-0.9c0.4-0.2,0.6-0.5,0.7-0.9
				c0.1-0.5,0.4-0.9,0.7-1.3c0.5-0.5,0.8-1,0.9-1.6c0.1-0.4,0.2-0.9,0.3-1.3c0.1-0.7,0.4-1.4,0.4-2.2c0-0.5,0.1-0.9,0.3-1.4
				c0.1-0.4,0.3-0.8,0.3-1.3c0-0.3,0.1-0.5,0.3-0.7C219.7,209.3,219.8,207.8,219.3,207.3z"/>
			<path class="st4" d="M219.7,209.3c0.3-0.3,0.8-0.3,1.3,0c0.1,0.1,0.3,0.3,0.3,0.4c0.1,0.4,0.1,0.7,0.1,1.1c0,0.5,0,1.1,0.1,1.6
				c0.2,0.9,0.5,1.7,0.7,2.6c0.1,0.2,0.1,0.4,0.1,0.6c-0.1,0.5,0.1,0.9,0.5,1.2c0.2,0.2,0.5,0.3,0.8,0.3c0.9,0.1,1.6,0.6,2.3,1.1
				c0.3,0.2,0.6,0.4,1,0.5c0.4,0.1,0.9,0.2,1.3,0.3c0.7,0.2,1.5,0.2,2.2,0.1c0.2,0,0.5-0.2,0.6-0.3c0.2-0.3,0.4-0.6,0.6-0.9
				c0.3-0.4,0.5-0.9,0.8-1.3c0.5-0.8,0.9-1.5,1.4-2.3c0.2-0.3,0.2-0.6,0.4-0.9c0.2-0.4,0.3-0.8,0.1-1.3c-0.1-0.4-0.1-0.7,0.1-1
				c0.1-0.2,0.2-0.4,0.2-0.6c0.1-0.9,0.5-1.7,0.7-2.6c0.1-0.4,0.1-0.6-0.1-0.9c-0.3-0.4-0.5-0.7-0.4-1.2c0-0.1-0.1-0.3-0.2-0.6
				c-0.3,0.2-0.4,0.4-0.5,0.5c-0.1,0.1-0.1,0.2-0.2,0.4c-0.6,0.7-1.2,1.3-1.7,2c-0.7,0.8-1.4,1.6-2,2.5c-0.4,0.6-0.9,1.1-1.3,1.6
				c-0.3,0.4-0.7,0.6-1.2,0.6c-0.4,0-0.7-0.2-0.7-0.6c-0.1-0.3,0-0.7-0.1-1c0-0.8-0.1-1.7-0.4-2.4c-0.1-0.4-0.2-0.7-0.2-1.1
				c0.1-0.4-0.1-0.6-0.4-0.9c-0.4-0.3-0.9-0.5-1.5-0.6c-0.7-0.1-1.3-0.1-2-0.1c-0.4,0-0.7,0-1,0.3c-0.4,0.3-0.9,0.6-1.3,1
				c-0.3,0.3-0.6,0.2-0.9,0.1L219.7,209.3z"/>
			<path class="st4" d="M190.9,221.2c-1.7,0-3.4-0.4-4.9-1.1c-0.8-0.4-1.6-0.9-2.2-1.6c-1.2-1.2-1.8-2.7-2.1-4.3
				c-0.1-0.5,0-1,0.1-1.5c0-0.3,0.2-0.7,0.1-1c-0.1-0.8,0.1-1.6,0.3-2.4c0.1-0.5,0.4-1,1-1.3c0.4-0.2,0.7-0.5,0.9-0.8
				c0.5-0.9,1-1.7,1.5-2.6c0.1-0.2,0.2-0.4,0.3-0.6c0.2-0.4,0.4-0.7,0.8-1c0.4-0.3,0.8-0.7,1-1.1c0.3-0.5,0.6-0.8,1.1-1
				c0.3-0.1,0.5-0.2,0.7-0.4c1.2-0.7,2.5-0.9,3.8-0.3c1.1,0.6,2.3,1,3.4,1.4c0.8,0.3,1.5,0.8,2.2,1.4c0.3,0.3,0.3,0.5,0,0.8
				c-0.3,0.4-0.7,0.6-1.2,0.6c-1.3-0.1-2.6,0.4-3.8,0.7c-0.9,0.3-1.8,0.7-2.5,1.4c-0.2,0.2-0.4,0.3-0.6,0.4
				c-0.5,0.3-0.9,0.8-1.3,1.3c-0.3,0.5-0.8,0.9-1.3,1.3c-0.4,0.3-0.8,0.7-1.1,1c-0.3,0.3-0.5,0.7-0.3,1.2c0.2,0.6,0.1,1.2-0.2,1.8
				c-0.2,0.4-0.4,0.8-0.6,1.2c-0.2,0.5,0,0.9,0.1,1.3c0.1,0.3,0.3,0.6,0.5,0.8c0.2,0.3,0.5,0.5,0.8,0.6c0.8,0.4,1.7,0.6,2.6,0.5
				c0.5-0.1,1.1-0.1,1.6-0.2c1-0.2,1.9-0.7,2.6-1.6c0.8-1,1.6-2,2.4-3c0.3-0.4,0.7-0.8,1-1.2c0.3-0.3,0.6-0.4,1-0.3
				c0.4,0.1,0.7,0.4,0.7,0.9c0,0.2,0,0.4,0,0.5c0,0.2,0.1,0.5,0.2,0.7c0.5,0.5,0.5,1.1,0.5,1.8c0,0.7-0.1,1.4-0.1,2.1
				c0,0.4,0.1,0.7,0.1,1.1c0,0.2,0.1,0.4,0.1,0.5c0,0.4-0.2,0.6-0.6,0.7c-1.6,0.2-3.1,0.4-4.7,0.6c-0.6,0.1-1.3,0.3-1.9,0.3
				C192.2,221.2,191.5,221.2,190.9,221.2z"/>
			<path class="st4" d="M352.2,220.9c0.1-0.7,0.1-1.5,0.2-2.3c0-0.2,0-0.3,0-0.5c0-0.6,0-1.2,0-1.8c0-0.4,0-0.7,0-1.1
				c0-0.3,0-0.7,0-1c0.1-0.7,0.3-1.4,0.4-2.1c0.1-0.6,0.2-1.3,0.2-1.9c0-0.4,0.1-0.8,0.3-1.2c0.2-0.5,0.3-1.1,0.4-1.7
				c0.1-0.6-0.2-0.9-0.8-1c-0.4-0.1-0.8-0.1-1.2,0c-0.3,0.1-0.6,0.1-0.8,0.3c-0.6,0.3-1.2,0.3-1.8,0.2c-0.6-0.1-1.1-0.1-1.7-0.1
				c-0.5,0-1-0.2-1.1-0.8c-0.2-0.5,0-0.8,0.5-0.9c0.5-0.1,1.1-0.1,1.6-0.2c1.1-0.2,2.2-0.4,3.3-0.9c0.4-0.2,0.9-0.4,1.3-0.5
				c1.1-0.3,2.2-0.8,3.1-1.5c0.5-0.4,1.1-0.5,1.7-0.4c0.9,0.1,1.8,0.2,2.7,0.5c0.1,0,0.3,0.1,0.4,0.2c0.2,0.1,0.2,0.3,0.1,0.5
				c-0.1,0.1-0.2,0.3-0.4,0.4c-0.9,0.7-1.3,1.8-1.6,2.8c-0.2,0.6-0.4,1.2-0.6,1.9c-0.3,0.9-0.6,1.8-0.6,2.8c0,0.3-0.1,0.5-0.2,0.8
				c-0.2,0.6-0.2,1.3-0.2,1.9c0,1.1-0.1,2.1-0.4,3.2c-0.1,0.5-0.1,1.1-0.2,1.7c-0.1,1-0.2,2-0.3,2.9c-0.2,1.2-0.5,2.4-0.7,3.6
				c0,0.1-0.1,0.2,0,0.3c0.2,0.9-0.3,1.6-0.5,2.3c-0.1,0.3-0.1,0.5-0.2,0.8c-0.2,0.3-0.3,0.7-0.6,0.9c-0.4,0.4-1.1,0.2-1.3-0.3
				c-0.1-0.3-0.2-0.6-0.2-0.9c-0.3-1.4-0.4-2.8-0.5-4.3C352.4,222.7,352.3,221.8,352.2,220.9z"/>
			<path class="st4" d="M303.4,213.2c0.1-0.7,0-1.3-0.6-1.8c-0.2-0.2-0.2-0.4-0.1-0.7c0.2-0.7-0.1-1.3-0.6-1.7
				c-0.4-0.3-0.8-0.3-1.2,0.1c-0.1,0.1-0.1,0.1-0.2,0.2c-0.4,0.7-1,0.8-1.7,0.6c-0.8-0.2-1.7-0.3-2.5-0.8c-0.1-0.1-0.3-0.1-0.4-0.2
				c-0.5-0.2-1.1,0.1-1.2,0.7c-0.1,0.8-0.4,1.5-0.3,2.3c0.1,0.6-0.1,1.1-0.2,1.7c0,0.2-0.1,0.3-0.1,0.5c0.1,0.8-0.2,1.5-0.2,2.3
				c0,0.3-0.2,0.5-0.5,0.4c-0.8-0.1-1.6-0.1-2.2-0.7c-0.3-0.4-0.8-0.7-0.9-1.2c0-0.2-0.1-0.4-0.1-0.5c0-0.5,0-1,0-1.5
				c0-0.5-0.1-1,0.1-1.4c0.1-0.1,0.1-0.3,0.1-0.4c0-0.7,0.1-1.4,0.4-2c0.1-0.3,0.1-0.8,0.1-1.2c0-0.4,0.1-0.8,0.3-1.1
				c0.2-0.3,0.4-0.7,0.4-1.1c0-0.3,0.1-0.5,0.4-0.7c0.7-0.5,1.5-0.6,2.4-0.4c0.4,0.1,0.8,0.2,1.2,0.4c0.2,0.1,0.5,0.2,0.7,0.4
				c0.3,0.3,0.5,0.6,0.8,0.8c0.5,0.5,1,0.5,1.6,0.1c0.4-0.3,0.7-0.6,1.1-1c0.4-0.3,0.8-0.6,1.2-0.9c0.1-0.1,0.2-0.2,0.4-0.2
				c1.3-0.4,2.7-0.6,4-0.5c0.8,0,1.1,0.4,1.1,1.2c0,0.5,0,0.9,0.1,1.3c0.1,0.4,0,0.9,0,1.4c0,0.4,0,0.9,0,1.3c0,0.2,0,0.4,0,0.6
				c-0.1,1,0.1,1.9,0.2,2.9c0.1,0.9,0.1,1.8-0.2,2.6c-0.1,0.3-0.2,0.6-0.1,1c0.1,0.6-0.2,1.1-0.6,1.6c-0.3,0.3-0.6,0.3-0.8-0.1
				c-0.2-0.4-0.5-0.8-1-1c-0.3-0.2-0.4-0.4-0.5-0.7c0-0.5-0.2-0.9-0.5-1.2C303.2,214.1,303.4,213.6,303.4,213.2z"/>
			<path class="st4" d="M256.5,218.5c0-0.7-0.4-1-1-1.2c-0.5-0.1-0.7-0.5-0.5-1c0.3-0.6,0.3-1.1-0.1-1.6c-0.1-0.2-0.1-0.4,0-0.7
				c0.1-0.2,0.2-0.4,0.2-0.7c0-0.5,0.2-1.1,0.1-1.6c-0.1-0.9-0.2-1.8-0.4-2.6c-0.1-0.5-0.1-0.9,0-1.3c0.1-0.4,0.4-0.6,0.8-0.8
				c1.1-0.5,2.2-0.1,3.2,0.3c0.5,0.2,0.9,0.5,1.2,0.9c0.2,0.3,0.3,0.6,0,0.9c-0.2,0.2-0.1,0.4,0.1,0.5c0.1,0.1,0.3,0.1,0.4,0.1
				c0.1,0,0.2-0.3,0.2-0.4c-0.1-0.5,0.1-0.8,0.4-1.2c0.4-0.5,0.7-1,1-1.5c0.1-0.1,0.1-0.2,0.1-0.3c0-0.3,0.1-0.6,0.3-0.9
				c0.5-0.8,0.1-1.9-0.9-2.1c-0.2-0.1-0.4-0.1-0.7-0.2c0.6-0.4,1.1-0.8,1.7-0.8c0.4,0,0.8,0,1.2,0.1c0.5,0.1,1,0.1,1.5,0
				c0.3-0.1,0.7,0,1,0.1c0.5,0.2,1,0.4,1.5,0.6c0.9,0.2,0.9,1,0.6,1.6c-0.3,0.6-0.7,1.3-1.2,1.7c-0.5,0.3-0.8,0.7-1,1.3
				c-0.1,0.2-0.3,0.3-0.4,0.4c-0.9,0.7-1.5,1.6-2.2,2.4c-0.4,0.5-0.1,1,0.1,1.4c0.2,0.5,0.6,0.9,1.2,1.2c0.1,0,0.2,0.1,0.2,0.1
				c0.6,0.6,1.3,1.1,1.9,1.8c0.8,0.9,1.2,2,1.8,3c0.1,0.2,0.2,0.5,0.3,0.7c0.2,0.4,0,0.7-0.5,0.7c-0.5,0-1-0.1-1.4-0.5
				c-0.3-0.2-0.5-0.4-0.9-0.4c-0.4-0.1-0.7-0.3-1-0.5c-0.3-0.3-0.7-0.6-1-0.9c-0.5-0.5-0.8-1.1-0.9-1.8c-0.1-0.2-0.1-0.5-0.3-0.7
				c-0.6-1.1-1.4-2.1-2.2-3c-0.2-0.2-0.5-0.3-0.7,0c-0.2,0.2-0.3,0.4-0.4,0.6c-0.2,1-0.3,1.9-0.4,2.9c-0.1,0.6-0.1,1.3-0.1,1.9
				c0,0.2,0,0.5,0,0.7c0,0.2,0,0.4,0,0.6c-0.1,0.6-0.2,0.7-0.8,0.7C257.9,218.7,257.2,218.6,256.5,218.5z"/>
			<path class="st4" d="M249.1,219.7c-0.3,0.3-0.6,0.6-1,0.7c-1.7,0.7-3.5,1-5.3,0.9c-0.4,0-0.8,0-1.2,0c-1.3,0.1-2.5-0.2-3.5-0.9
				c-0.6-0.4-0.9-0.9-0.8-1.6c0.1-1,0.3-1.9,0.5-2.8c0.2-0.7,0.6-1.3,0.8-2c0.2-0.4,0.4-0.8,0.5-1.3c0.2-0.7,0.4-1.3,0.8-2
				c0.3-0.5,0.5-1.1,0.7-1.7c0.2-0.4,0.3-0.8,0.7-1.1c0.4-0.4,0.4-0.8,0-1.1c-0.2-0.2-0.6-0.4-0.8-0.7c-0.1-0.1-0.3-0.3-0.2-0.5
				c0-0.5,0.2-1,0.6-1.3c0.3-0.3,0.6-0.3,1-0.2c0.9,0.2,1.6-0.2,2.1-0.8c0.1-0.2,0.3-0.4,0.3-0.6c0.3-0.8,1.3-1.2,2.1-0.9
				c0.3,0.1,0.6,0.2,0.8,0.3c0.4,0.1,0.8,0.2,1.3,0.1c0.6-0.1,1.2-0.1,1.7,0.2c0.1,0.6,0.1,1.1,0.2,1.7c0,0.4-0.1,0.5-0.4,0.7
				c-0.4,0.2-0.8,0.4-1.2,0.6c-0.2,0.1-0.4,0.2-0.6,0.3c-0.8,0.5-1.5,1-2.1,1.8c-0.3,0.5-0.8,1-1.2,1.5c-0.4,0.5-0.7,1.1-1,1.6
				c-0.1,0.2,0,0.4,0.1,0.5c0.2,0.2,0.5,0.4,0.8,0.4c0.6-0.1,1.2-0.2,1.9-0.3c1.1-0.3,2.1-0.6,3.2-0.6c0.3,0,0.5,0,0.8,0.1
				c0.4,0.1,0.5,0.4,0.1,0.7c-0.1,0.1-0.3,0.2-0.4,0.3c-1.4,0.9-3,1.3-4.6,1.5c-0.7,0.1-1.4-0.1-2.1-0.3c-0.6-0.2-1.1-0.1-1.5,0.4
				c-0.3,0.4-0.6,0.7-0.7,1.1c-0.3,0.7-0.5,1.5-0.7,2.2c-0.1,0.5-0.2,1-0.3,1.6c-0.1,0.8,0.3,1.3,1.1,1.4c0.6,0.1,1.1,0.1,1.7-0.2
				c0.9-0.4,1.9-0.6,2.9-0.4c0.6,0.1,1.2,0.1,1.8,0.2C248.5,219.2,248.9,219.3,249.1,219.7z"/>
			<path class="st4" d="M276.1,213.3c-0.1,0.6-0.2,1.3-0.3,1.9c0,0.4-0.1,0.8-0.1,1.2c0,0.3,0,0.6,0,0.8c-0.1,0.5-0.3,0.6-0.8,0.4
				c-0.3-0.1-0.7-0.2-1-0.4c-0.1,0-0.3-0.1-0.4-0.2c-0.3-0.1-0.5-0.3-0.8-0.4c-0.5-0.2-0.8-0.5-0.9-1c-0.2-0.6-0.2-1.2-0.1-1.8
				c0.2-0.8,0.3-1.7,0.2-2.6c0-0.2,0-0.4,0.1-0.6c0.2-0.5,0.2-1-0.1-1.5c-0.2-0.4-0.1-0.7,0.2-1c0.1-0.1,0.3-0.3,0.4-0.5
				c0.3-0.4,0.5-0.4,1-0.2c0.2,0.1,0.3,0.2,0.5,0.2c0.2,0,0.4,0.1,0.5,0c0.1-0.1,0.1-0.4,0.1-0.5c-0.1-0.2-0.2-0.5-0.3-0.7
				c-0.3-0.5-0.2-0.7,0.4-0.7c1.2,0,2.3,0.4,3.3,1.2c0.7,0.6,1.2,1.3,1.6,2.2c0.2,0.5,0.4,0.9,0.6,1.3c0.3,0.6,1.1,0.8,1.6,0.2
				c0.5-0.7,1-1.4,1.5-2.1c0.7-1.1,1.5-2.2,2.3-3.2c0,0,0.1-0.1,0.1-0.1c0.2-0.1,0.4-0.3,0.6-0.2c0.2,0.1,0.2,0.4,0.2,0.6
				c-0.1,0.6,0.2,1.1,0.6,1.5c0.3,0.4,0.4,0.8,0.2,1.2c-0.2,0.4-0.2,0.9-0.4,1.3c-0.1,0.2-0.2,0.3-0.3,0.5c-0.3,0.2-0.3,0.5-0.4,0.8
				c0,0.4-0.2,0.8-0.2,1.1c-0.1,0.3-0.1,0.6-0.1,0.9c0.1,0.4,0.1,0.8-0.1,1.2c-0.1,0.1-0.1,0.3-0.1,0.4c-0.2,0.9-0.6,1.2-1.6,1.2
				c-0.5,0-1.1,0-1.6-0.2c-0.2-0.1-0.5-0.1-0.8-0.1c-0.6-0.1-1-0.3-1.5-0.7c-0.3-0.2-0.6-0.3-0.9-0.5c-0.2-0.1-0.4-0.2-0.5-0.3
				c-0.4-0.5-0.8-1.1-1.1-1.6c-0.1-0.1-0.2-0.2-0.3-0.3c-0.4-0.3-0.9-0.2-1.1,0.3c-0.1,0.3-0.1,0.6-0.2,0.9
				C276.1,213.3,276.1,213.3,276.1,213.3z"/>
			<path class="st4" d="M340.4,213.7c0.1,0.5,0.2,0.9,0.2,1.3c0,0.2-0.1,0.4-0.3,0.5c-0.3,0.2-0.6,0.3-0.9,0.3
				c-0.9,0-1.8-0.2-2.7-0.4c-1.1-0.3-1.8-0.8-2.4-1.7c-0.3-0.5-0.8-0.9-1.2-1.3c-0.3-0.3-0.5-0.6-0.7-0.9c-0.4-0.4-0.8-0.4-1.3-0.1
				c-0.3,0.2-0.2,0.5-0.2,0.7c0.2,0.9-0.2,1.7-0.3,2.5c0,0.2-0.1,0.5,0,0.8c0.3,0.9,0.2,1.9-0.1,2.8c0,0.1,0,0.2-0.1,0.3
				c-0.1,0-0.1,0.1-0.2,0.1c-0.7-0.1-1.4-0.2-2.1-0.3c-0.8-0.2-0.9-0.5-1-1.2c0-0.6-0.2-1.1-0.3-1.7c-0.1-0.3,0-0.5,0.2-0.7
				c0.2-0.2,0.2-0.5,0.2-0.8c0-0.3,0-0.5,0.1-0.8c0.1-0.7,0-1.3-0.3-1.9c-0.1-0.3-0.2-0.6-0.2-1c-0.1-0.6-0.2-1.2-0.4-1.8
				c-0.1-0.6-0.1-0.7,0.4-1c0.4-0.2,0.8-0.4,1.2-0.6c0.2-0.1,0.4-0.3,0.5-0.4c0.3-0.4,0.7-0.6,1.3-0.4c0.6,0.1,1.1,0.4,1.6,0.8
				c0.3,0.2,0.5,0.5,0.8,0.7c0.8,0.6,1.3,1.5,1.6,2.4c0.3,0.7,0.7,1.2,1.2,1.6c0.4,0.3,0.9,0.3,1.4,0.4c0.5-0.4,1.2-0.7,1.4-1.4
				c0.4-1.1,0.7-2.2,1.5-3.1c0.4-0.5,0.8-1.1,1.1-1.7c0.1-0.2,0.2-0.4,0.5-0.4c0.3,0,0.4,0.2,0.4,0.5c0.1,0.4,0.2,0.8,0.3,1.2
				c0.1,0.3,0.1,0.7-0.1,1c-0.2,0.4-0.2,0.7-0.2,1.1c0,0.4-0.1,0.9-0.2,1.3c0,0.2-0.1,0.4-0.1,0.6c0,0.5,0.1,0.9,0,1.4
				c0,0.3-0.2,0.6-0.4,0.9C340.6,213.4,340.5,213.6,340.4,213.7z"/>
			<path class="st4" d="M322.8,211.7c-0.6,0.4-1.2,0.7-2,0.9c-0.9,0.2-1.7,0.3-2.6,0.5c-0.2,0-0.4,0-0.6,0c-1.2-0.1-2.1,0.5-2.6,1.6
				c-0.3,0.7-0.1,1.1,0.3,1.6c0.4,0.6,1,1,1.7,1.1c1.1,0.2,2.2,0.2,3.3,0.4c0.6,0.1,1.1,0.3,1.7,0.5c0.1,0,0.1,0.1,0.3,0.2
				c-0.7,0.6-1.4,1.1-2.3,1c-0.9,0-1.9,0-2.8-0.1c-1.3-0.2-2.6-0.5-3.7-1.2c-0.8-0.5-1.1-1.3-1.2-2.1c-0.1-0.6,0-1.3,0-1.9
				c0-0.3,0.2-0.7,0.3-1c0.3-0.6,0.3-1.2,0.2-1.8c-0.1-0.2,0-0.5,0-0.7c0.3-1.1,0.6-2.2,0.9-3.2c0.1-0.5,0.1-0.9-0.2-1.4
				c-0.1-0.2-0.2-0.3-0.2-0.5c-0.2-0.6-0.5-1-1.1-1.3c-0.3-0.2-0.3-0.4-0.1-0.7c0.3-0.5,0.8-0.6,1.3-0.6c0.2,0,0.4,0.2,0.5,0.4
				c0.4,0.7,1,1,1.8,1c0.3,0,0.6,0.1,0.9,0.2c0.4,0.1,0.8,0.1,1.2,0.2c0.3,0.1,0.5,0.1,0.8,0.2c0.4,0.2,0.8,0.3,1.2,0.5
				c0.4,0.2,0.4,0.4,0.2,0.7c-0.1,0.2-0.3,0.3-0.4,0.5c-0.4,0.5-0.7,1-0.9,1.6c-0.1,0.4-0.5,0.8-0.7,1.2c-0.3,0.5-0.6,1-0.8,1.6
				c-0.2,0.4,0.1,0.7,0.5,0.7c0.5,0,1-0.2,1.6-0.2c0.9-0.1,1.7-0.2,2.6-0.3C322.4,211.3,322.7,211.3,322.8,211.7z"/>
		</g>
	</g>
	<g>
		<g>
			<path class="st5" d="M781.8,160.2c-1.5,3.8-2.8,7.4-4.3,11.4c5.3,1.2,5.4,7.2,9.6,10.2c2.4-6.2,3.6-12.5,3.6-19.8
				c1.9,0.8,3.2,1.3,4.4,1.8c1.4,8.1-0.6,15.5-1.9,23c-0.3,1.9-0.3,3.4,0.8,5c4.6,6.2,10.5,10.9,17.4,14.3
				c5.8,2.9,11.8,5.2,18.5,3.8c0.3-0.1,0.6,0.2,1.2,0.3c0.2,1.4,1.1,3.2-1.2,3.8c-4.3,1.2-8.7,2.5-13.2,3.1
				c-5.8,0.8-10.3-2-14.1-6.1c-3.2-3.4-6.4-6.9-9.6-10.3c-0.7-0.8-1.7-1.4-2.9-2.3c-1.4,1.9-3,3.4-3.9,5.2c-1.9,3.7-5.6,5.2-8.4,7.7
				c-1.1,0.9-3.2,1.5-4.6,1.2c-5-1.2-9.9-2.7-14.8-4.3c-1.1-0.4-1.9-1.6-3.5-2.9c1.8-0.3,2.8-0.6,3.8-0.6c2.6,0,5.2,0,7.8,0.1
				c2.8,0.2,4.8-0.7,6.8-2.9c2.2-2.5,5.3-4.2,7.5-6.8c1.7-1.9,2.6-4.6,3.8-6.7c-2.6-5.4-5-10.3-7.3-15.1c-8.5,2.5-8.5,2.5-10.1-3.1
				c10.1-7,8.6-17.1,6.1-27.5c4-1.3,5.2,2.3,7.4,3.7c2.9,1.8,2.2,5,2,8.4c2.1-0.2,3.7-0.1,5.2-0.5c2.3-0.6,4.7-1.4,6.9-2.3
				c6-2.4,7.7-2.3,13.6,1.8c-1,2.8-3.3,3.4-5.7,2.8c-2.3-0.5-4.1,0.2-6,0.9c-3.2,1.1-6.4,2.2-9.7,3
				C785.5,160.9,783.8,160.4,781.8,160.2z"/>
			<path class="st5" d="M740.1,162.1c1.8-2.6,4.3-3.3,7.5-2.8c1.7,0.3,3.5,0,5.2-0.2c3-0.4,6.1-0.8,9.1-1.4c2.6-0.5,4.7,0.4,6.9,2
				c-2.3,5.5-8.6,3.8-12.1,6.8c0,3.5,0,7,0,10.8c2.6,0.2,4.8,0.3,7.2,0.4c-0.8,4.4-4.9,3.2-7.4,4.8c-0.2,3.4-0.5,6.9-0.8,11.2
				c6.5-2.3,12.5-4.4,18.5-6.5c0.2,0.3,0.4,0.5,0.6,0.8c-1,1-1.9,2.4-3.2,3.1c-6.4,3.7-12.9,7.3-19.5,10.9c-6.1,3.3-13,3.8-19.7,4.5
				c-2.8,0.3-4.6-1.7-6-3.8c2.5-6.1,8.2-4.7,13.1-5.7c2.5-4.6-2.2-9,0-14.3c0.2-0.2,1.1-1.2,2.2-1.7c0.8-0.4,2.2-0.7,2.9-0.3
				c0.8,0.4,1.6,1.7,1.6,2.6c0,4-0.4,7.9-0.6,11.9c3.5,0.7,4.6,0,4.4-2.7c-0.5-8.4-1-16.7-1.6-25.3
				C745.7,165.8,741.4,166.7,740.1,162.1z"/>
		</g>
		<g>
			<path class="st5" d="M929.7,150.3c-2.3,2.8-4.3,3.7-7.1,4.3c-10.4,2.3-21.1,2.3-31.6,3.5c-1.6,0.2-3.1,0.7-4.9,1.1
				c0,3.9,0,7.6,0,11.2c4.8,0.1,9.3-3,11.2-7.9c4.4-0.8,8.2,0.4,12.3,4.3c-4.3,4-3.1,9.5-3.4,14.5c-0.3,5.1,0.2,10.3,0.3,15.4
				c0,4.3-2.2,7.2-6,9.3c-3.2-3.3-3.3-7.5-3.9-11.3c-0.3-1.7,0-3.6,0.2-5.3c0.8-6.6,1.8-13.1,2.6-19.7c0.1-0.8,0-1.5,0-3.5
				c-1.3,1.9-2,2.8-2.5,3.9c-2.1,3.7-4.1,7.3-9.1,7.9c-2.1,0.2-3.2,2-3.7,4c-0.7,2.8-1.1,5.7-2,8.5c-1.1,3.5-2.3,7.1-3.9,10.4
				c-1.8,3.8-5.4,5.9-8.7,8.2c-0.5,0.3-1.2,0.2-1.9,0.1c-4.8-0.6-9.5-1.6-13.8-4c-2.8-1.5-6-2.2-8.2-4.7c-0.7-0.8-1.1-1.7-2.3-3.5
				c2.6,0.3,4.2,0.4,5.6,0.7c2.2,0.5,4.4,1.3,6.5,1.8c7.9,2,13.8-1.1,17.7-8.7c4.2-8.1,5-17,6.8-25.7c0.5-2.2,0.8-4.4,1.2-6.6
				c-1.8-1.1-3.5-2.2-5.2-3.1c-1.7-1-3.4-1.9-3.4-4.4c2-1.9,4.4-3,7.1-1.9c5.9,2.5,11.8,2.5,18,1.2c3-0.6,6.1-0.6,9.2-0.7
				c3.7-0.1,7.3-0.2,10.9-0.7C921.4,148.5,925.3,149.7,929.7,150.3z"/>
			<path class="st5" d="M929.5,196.1c-4.7,1.8-9.1,4.5-13.9,0.7c-2.4-1.9-2.5-4.3-2.4-7.4c1.6,0.5,2.9,0.9,4.2,1.4
				c1,0.4,2,1.3,3.1,1.4c2.6,0.1,5.3,0.4,7.6-0.5c3-1.1,1.6-4.1,1.5-6.4c-0.1-1.7-0.4-3.4-0.7-4.9c-6.9-0.1-13.7,2.5-19.8-2.2
				c0.3-1.7,0.6-3.2,1-5.2c5.7,2.4,11.3,2.9,17.1,0.5c0.1-5.4,0-11,2.7-16.1c5.2,1.3,7.8,5,7.5,10c-0.5,8.9-0.3,17.7,1.1,26.5
				c0.6,3.6,0.6,7.4,0.8,11.1c0.1,2.9-1.1,5-3.8,6.7c-4.3,2.8-8.2,6.3-12.1,9.6c-3.3,2.7-6.7,3-10.4,1.1c-4.5-2.2-9-4.4-13.4-6.8
				c-0.8-0.4-1.2-1.6-2.5-3.4c3.9,0.5,6.8,0.5,9.5,1.4c8.4,2.9,14.4-0.2,19.2-6.9c0.4-0.5,0.7-1.2,1.2-1.5
				C930.9,203.1,930.1,199.7,929.5,196.1z"/>
			<path class="st5" d="M918.7,139.3c-1.7,0.9-3.2,2.1-5,2.5c-4.7,1-9.5,1.8-14.2,2.5c-1.9,0.3-7.7-2.8-8.4-4.5
				c-0.3-0.7-0.3-2,0.1-2.2c1.1-0.7,2.9-1.8,3.7-1.3c6.2,3.1,12.6,2.1,19,1.1c1.5-0.2,3.1,0.3,4.6,0.5
				C918.5,138.3,918.6,138.8,918.7,139.3z"/>
		</g>
		<g>
			<path class="st5" d="M669.2,169.6c1.3-0.6,2.6-0.9,3.4-1.6c2.8-2.6,5.6-1.8,8.3-0.2c2.1,1.2,3.9,2.9,5.7,4.4
				c0.6,0.5,1.3,1.2,1.3,1.8c-0.4,4.4,2.4,8,2.9,12.2c0.4,3.5,0.3,6.4-3,8.7c-2.1,1.4-3.7,3.6-5.4,5.4c-3.5-0.5-7-1-10.4-1.4
				c-1-3.8-0.9-3.7,2.1-5.5c1.5-0.9,3.2-1.8,4.4-3c2.3-2.5,2.9-5.6,1.9-8.8c-0.8-2.6-1.7-5.2-2.6-7.7c-0.5-1.4-1.5-2.2-3.2-1.6
				c-1.8,0.6-3.7,1.1-5.9,1.7c0,4.4,0,8.7,0,13c-0.1,4.7-0.3,9.3-0.3,14c0,2.5,0.6,5.1,0.5,7.6c-0.1,2.7-0.6,5.4-1.1,8
				c-0.3,1.4-1.4,2.5-2.9,2.1c-1-0.3-2.4-1.2-2.6-2c-1-3.9-2.2-7.9-2.2-11.9c-0.1-9,0.5-18.1,0.7-27.1c0.1-3.5-0.1-7,0.1-10.4
				c0.2-3.1,0.6-6.2,1-9.6c-3.7-0.7-7.9,0.5-12.2,1c-1.9,0.2-3.9,0.6-5.8,0.6c-3,0.1-5.6-0.6-7.6-3.1c-1.2-1.5-2.9-2.6-4.5-4
				c0.4-0.9,0.7-1.9,1.2-3c3.2,0.8,6.3,1.7,9.5,2.4c4.6,0.9,9.1,1.2,13.8,0.6c10.3-1.1,20.7-1.6,31.1,0.3c4,0.7,8.1,0.8,12.1,1.1
				c0.7,0.1,1.4,0.4,2.4,0.6c-0.4,0.8-0.6,1.5-1,1.8c-6.4,3.8-13.2,6-20.6,3.2c-4.9-1.9-9.9-2.5-15.8-1.7c1.2,2.1,2.5,3.9,3.3,5.9
				C668.6,165.2,668.8,167.3,669.2,169.6z"/>
			<path class="st5" d="M651.6,167.3c5,2.8,5.4,4.3,3,8.4c-1.1,1.9-2,4-2.8,6.1c-0.8,2.2-0.4,4.3,0.4,6.6c0.7,1.9,0.8,4.1,0.8,6.1
				c0,1.6-0.9,3.1-2.7,3.1c-1.7,0.1-3.8,0.1-4.8-1.8c-0.9-1.6-1.5-3.3-2.2-4.9c-0.4-1-0.4-2.3-1-3c-1.9-2.1-1.6-4.2-1-6.7
				c0.6-2.4,1.2-4.2,3.3-6C647.4,173,649.4,169.9,651.6,167.3z"/>
			<path class="st5" d="M670.4,145.6c-7.1,2.5-12.5-2.8-16.2-10.6c4.1-0.3,7.1,2.1,10.3,3.6C667.4,139.9,669.4,142.5,670.4,145.6z"
				/>
		</g>
		<g>
			<path class="st5" d="M598.8,215c-0.7,0.6-1.4,1.4-2.2,1.7c-6.6,2.4-13.3,4.2-20.3,2.8c-1.2-0.2-2.5-0.9-3.3-1.8
				c-1.6-1.8-2.7-4-4.5-5.6c-1.3-1.2-2.9-1.9-3.9-3.6c-1.8-3-4.3-5.7-6.2-8.6c-0.8-1.3-1.1-3-1.5-4.6c-0.9-3.4-1.8-6.8-2.7-10
				c-4.1,1.1-7.6,2-11.4,2.9c-0.1,1.3-0.3,2.5-0.2,3.8c0.3,6.1,0.8,12.3,0.8,18.4c0,5.4-2.7,7.5-8.6,7.3c1.1-6.4,2.3-12.8,3.4-19.1
				c-3.7,1.7-5.6,4.6-7.4,7.5c-2.4,3.9-4.7,4.7-8.8,3.2c-1.6-0.6-3.3-1-5-1c-2.5,0-4.5-0.8-6.6-2.8c5.7-2.8,12.5-1.6,16.7-6.4
				c2.6-3,4.5-6.6,7.1-10.5c-2.4,0.3-4.4,0-5.7,0.8c-3.9,2.3-6.9-0.4-10-1.6c-1.1-0.4-1.7-2.4-3.1-4.5c1.9,0.3,2.7,0.4,3.4,0.6
				c2.8,0.9,5.5,1,8.5,0.1c2.7-0.8,5.8-0.5,8.7-0.8c2.1-0.2,3.4-1.2,2.3-3.6c-4.7,1.6-10.3-0.5-11.9-4.4c3.9-2.7,9.8-1.9,12.2-7.1
				c2.4,1,3.9,2.4,4.5,4.5c0.2,0.8,0.5,2.1,0.2,2.3c-3.5,2.2,0.4,4.6-1.5,7.2c4.4,0,7.6,0,10.9,0c0.2-4.8-3.3-9.5-2-14.9
				c2.4-0.1,3.7,0.3,4.1,2.4c0.2,0.8,0.6,1.5,0.7,2.3c1.5,10,6.1,18.8,11.2,27.1c3.6,5.8,8.1,11.9,16,12.8c4.2,0.5,8.4,0.7,12.6,1.1
				c1.1,0.1,2.3,0.6,3.4,0.9C598.8,214.1,598.8,214.6,598.8,215z"/>
			<path class="st5" d="M560.7,145.4c-2.7,0-5.4,0-8.5,0c0.1,1.6,0.2,2.9,0.2,4.1c2.4,1.6,6.5-0.9,7.2,4c-2.4,0.3-4.7,0.7-7.3,1
				c0.3,1.7,0.6,3,0.9,4.4c3.5,0,6.8,0,10.1,0c0.5,1.6,0.9,2.8,1.2,4c-0.4,0.3-0.7,0.7-0.9,0.7c-7.3-0.4-14.5,0.4-21.5,2.3
				c-4.8,1.3-7.9-0.4-12-3.9c6.3-1.7,12.2-0.2,17.8-2.4c-0.3-1.2-0.5-2.4-0.8-3.6c-4.3,1.5-6.8,1-11-2.6c3.3-2.5,7.7-0.6,10.8-2.8
				c0.6-3.9,0.1-4.4-3.3-3.4c-4.7,1.4-6.7,0.8-10.6-3.4c0.8-0.7,2-2,2.4-1.8c3.7,1.7,6.9-0.6,10.4-0.8c3.8-0.2,7.7-0.7,11.5-0.7
				C560.4,140.5,560.7,141.3,560.7,145.4z"/>
			<path class="st5" d="M573.2,184.4c2.4,1.2,3.7,2.9,4,5c0.6,3.3,1.1,6.6,1.2,10c0.1,2.1-1,4-3.4,4.6
				C572.2,200.9,571.2,190.6,573.2,184.4z"/>
			<path class="st5" d="M564.5,169.8c4.9-2.5,7.1,1.5,10,3.4c1.9,1.2,2.5,2.8,1.2,5.2C570.6,177.5,567.1,174.7,564.5,169.8z"/>
			<path class="st5" d="M549.2,189.8c1.1,3.4,2.1,6.5,3.1,9.6c0.5,1.6,0.9,3.3-1.6,3.7c-2.1,0.3-3.3-0.5-3.3-3
				C547.3,196.7,545.4,193,549.2,189.8z"/>
			<path class="st5" d="M554.4,137.1c-0.7-4.5-0.4-6.4,1.3-9.5c3.5,2.8,4,3.9,2.9,7C558,136.7,556.8,138,554.4,137.1z"/>
			<path class="st5" d="M546,133.2c-0.4,5-2.8,5.5-8.1,2.5C539.6,131.9,543,134.4,546,133.2z"/>
		</g>
		<g>
			<path class="st5" d="M419.5,208.9c1.5-3.1,4.1-2.1,6.1-1.7c3.1,0.6,5.6-0.4,7.3-2.6c2-2.5,3.6-5.3,5.1-8.2c0.2-0.5-1.1-1.7-1.9-3
				c-3.6,3.6-7.2,6-11.7,7.2c-1.3,0.3-2.4,1.8-3.4,3c-2.5,3.1-4.8,6.3-7.2,9.5c-3.7,4.8-7.4,5.8-12.9,3.6c-1-0.4-1.8-1-3-1.6
				c2.7-3.7,7-4.9,10.7-6.6c4.4-2,6.9-5.3,9.8-9.1c-1.3-1.2-2.4-2.2-3.6-3.3c1.7-2.5,3.6-4.1,6.9-2.7c2.2,0.9,3.6-0.7,4.9-2
				c1.6-1.5,2.9-3.2,4.3-4.8c-0.2-0.3-0.4-0.6-0.6-0.9c-1.4,0.4-2.8,1.2-4.2,1.3c-4.1,0.3-8.2,1-12.2-1.1c-1.4-0.7-3.3-0.6-5-0.9
				c-1.1-0.2-2.5-0.3-3.2-1c-0.8-0.9-1-2.3-1.4-3.6c1.2-0.4,2.6-1.4,3.6-1.1c6.4,1.8,12.6,1.1,18.9-0.2c0.5-0.1,0.9-0.4,1.3-0.6
				c0.7-1.9-1.7-4.5,1.1-5.6c2.7-1,3.9,1.2,5.2,3.1c0.7,0.9,2.3,1.9,3.3,1.8c5.6-0.6,11.2-1.5,16.8-2.2c1-2.3,2-4.5,2.9-6.6
				c4.6,0.6,2.8,4.1,3.9,6.7c8.3,0.3,16.8,0.6,25.3,0.9c0.4,3-0.5,4.3-3.4,4.8c-4.1,0.7-8,2.2-12,2.9c-2.6,0.4-5.4-0.2-8.1-0.3
				c-5.1-0.3-10.2-0.8-15.2-0.8c-3.4,0-6.8,0.9-10.3,1c-2.7,0.1-4.1,1.2-4.8,3.6c-0.4,1.5-1,2.9-1.9,5.1c2.2-0.5,4.1-0.5,5.3-1.3
				c3.3-2.5,5.7-0.6,8.9,0.7c-2.3,6.3-4,12.4-6.6,18c-2.9,6.3-11.6,7.4-16.4,2.3C421.1,211.6,420.3,210.1,419.5,208.9z"/>
			<path class="st5" d="M446.4,146.7c3.1,0.2,5.9,0.5,8.9,0.7c0.2,3.1-0.9,4.7-3.7,5c-5.5,0.4-10.9,0.7-16.4,1
				c-1.7,0.1-3.1-0.5-3.4-2.6c2.4-3.4,7.4-0.5,10.2-3.7c-1.4-2.3-3.6-1.7-5.4-1.4c-4.2,0.8-7.3-1.3-10.6-3.3
				c-0.6-0.4-0.8-1.3-1.3-2.3c3.2-1,5.7,0.2,8.4,0.4c2.6,0.2,5.3-0.7,7.6-1c-0.4-5.5-0.7-10.4-1.1-15.2c4.6-1.2,4.8-1.2,5.8,2.1
				c1,3.4,1.6,6.9,2.4,10.3c2.1,0,4.5-0.2,6.8,0c2.3,0.2,4.6,0.7,6.7,1.1c0.2,3.2-1.3,4-3.5,4.1c-2.4,0-4.8,0.1-7.2,0
				C447.6,141.9,446.1,143.2,446.4,146.7z"/>
			<path class="st5" d="M474,193.6c0-2.8-1.2-4.7-4-4.9c-2.2-0.2-4.4,0.1-6.6,0.6c-3,0.6-5.9,1.5-9.1,0.7c-1.7-0.4-3.7,0.7-5.4,1.1
				c0.3,3,0.6,4.9,0.6,6.7c0.1,4.6,0,9.3,0,13.9c0.1,4.5,0.8,5.6,5.4,5.7c4.7,0,9.3-0.8,14.1-1.2c0.2,0.5,0.4,1.4,0.6,2.2
				c3.8-5.6,4.4-11.6,4.5-17.7C474.2,198.3,474,196,474,193.6z M455.2,212c0-5.8,0-10.9,0-16.7c3.3-0.3,6.8-0.6,10.4-0.9
				c2.4,5.4,1.1,10.8,2,16.1C463.3,212.1,459.3,213.4,455.2,212z"/>
			<path class="st5" d="M454.4,160.8c-0.2-2.9-1.7-4.8-4.5-5.2c-1.3-0.2-2.7,0-4.1,0.2c-3.3,0.5-6.5,2.1-10.1,1
				c-1-0.3-2.4,1-3.6,1.5c1.7,5.5,0,11.4,3.8,16.2c3.6-0.6,6.7-0.8,9.6-1.7C451.9,170.9,455,169.6,454.4,160.8z M447.4,167.2
				c-2.6,0.6-4.7,1.1-7.2,1.7c-0.9-2.2-1.7-4-2.5-5.9c2.2-2.9,5.3-3,7.9-2.1C448.2,161.7,447.4,164.5,447.4,167.2z"/>
		</g>
	</g>
</g>
</svg>
